<?xml version="1.0" standalone="no"?>
<!DOCTYPE svg PUBLIC "-//W3C//DTD SVG 20010904//EN"
 "http://www.w3.org/TR/2001/REC-SVG-20010904/DTD/svg10.dtd">
<svg version="1.0" xmlns="http://www.w3.org/2000/svg"
 width="500.000000pt" height="500.000000pt" viewBox="0 0 500.000000 500.000000"
 preserveAspectRatio="xMidYMid meet">
<metadata>
Created by potrace 1.14, written by Peter Selinger 2001-2017
</metadata>
<g transform="translate(0.000000,500.000000) scale(0.100000,-0.100000)"
fill="#000000" stroke="none">
<path d="M2300 4994 c-116 -10 -327 -48 -443 -80 -911 -245 -1607 -977 -1801
-1894 -41 -196 -51 -293 -50 -530 0 -241 12 -358 60 -559 112 -475 346 -888
695 -1226 380 -369 831 -594 1364 -682 157 -26 593 -26 750 0 533 88 984 313
1364 682 348 337 584 752 695 1225 48 203 60 319 60 565 0 244 -11 352 -59
565 -162 722 -664 1356 -1329 1679 -358 175 -667 249 -1056 256 -113 1 -225 1
-250 -1z m440 -189 c159 -17 208 -26 356 -64 635 -166 1182 -614 1479 -1208
110 -222 183 -452 221 -704 25 -160 25 -501 0 -659 -79 -514 -300 -954 -656
-1310 -908 -907 -2369 -907 -3280 0 -353 352 -579 802 -657 1310 -24 159 -24
501 0 659 54 348 178 671 363 948 103 154 182 249 321 384 131 128 214 195
357 287 439 286 974 413 1496 357z"/>
<path d="M1960 2429 l0 -790 378 3 c362 4 380 5 447 27 204 68 310 180 338
360 13 89 -2 200 -37 270 -33 63 -104 126 -169 147 -71 23 -74 29 -26 43 61
18 148 110 174 181 23 65 27 210 7 277 -31 105 -120 186 -250 227 -117 37
-230 46 -559 46 l-303 0 0 -791z m666 496 c28 -8 62 -28 79 -45 25 -27 30 -40
33 -98 3 -57 0 -72 -20 -101 -45 -67 -73 -76 -260 -79 l-168 -4 0 171 0 171
143 0 c97 0 159 -5 193 -15z m-30 -606 c83 -15 137 -49 163 -102 37 -76 22
-178 -33 -233 -50 -50 -114 -64 -288 -64 l-148 0 0 205 0 205 123 0 c68 0 150
-5 183 -11z"/>
</g>
</svg>
